<?xml version="1.0" encoding="utf-8"?>
<!-- Generator: Adobe Illustrator 18.1.1, SVG Export Plug-In . SVG Version: 6.00 Build 0)  -->
<!DOCTYPE svg PUBLIC "-//W3C//DTD SVG 1.1//EN" "http://www.w3.org/Graphics/SVG/1.1/DTD/svg11.dtd">
<svg version="1.1" id="Layer_1" xmlns="http://www.w3.org/2000/svg" xmlns:xlink="http://www.w3.org/1999/xlink" x="0px" y="0px"
	 viewBox="0 0 270 155.3" enable-background="new 0 0 270 155.3" xml:space="preserve">
<g>
	<g>
		<g>
			<circle cx="81.5" cy="51.1" r="9"/>
		</g>
		<g>
			<circle cx="81.5" cy="75.7" r="9"/>
		</g>
		<g>
			<circle cx="81.5" cy="100.2" r="9"/>
		</g>
	</g>
	<rect x="24" y="44" transform="matrix(0.9775 0.2111 -0.2111 0.9775 10.6889 -10.1897)" width="58.2" height="2"/>
	<rect x="52.1" y="28.2" transform="matrix(0.2109 0.9775 -0.9775 0.2109 97.822 -6.6985)" width="2" height="58.2"/>
	<rect x="24" y="68.5" transform="matrix(0.9775 0.2111 -0.2111 0.9775 15.8759 -9.6358)" width="58.2" height="2"/>
	<rect x="52.1" y="52.7" transform="matrix(0.2109 0.9775 -0.9775 0.2109 121.8357 12.6861)" width="2" height="58.2"/>
	<rect x="24" y="93.1" transform="matrix(0.9775 0.2112 -0.2112 0.9775 21.0638 -9.0822)" width="58.2" height="2"/>
	<rect x="52.1" y="77.3" transform="matrix(0.2109 0.9775 -0.9775 0.2109 145.8498 32.0711)" width="2" height="58.2"/>
	<rect x="52.1" y="60.2" transform="matrix(0.5438 0.8392 -0.8392 0.5438 103.1647 -1.6065)" width="2" height="67.8"/>
	<rect x="52.1" y="40" transform="matrix(0.7339 0.6792 -0.6792 0.7339 69.685 -14.2728)" width="2" height="83.7"/>
	<rect x="19.2" y="56.2" transform="matrix(0.8392 0.5438 -0.5438 0.8392 39.6621 -19.6509)" width="67.8" height="2"/>
	<rect x="11.2" y="68.5" transform="matrix(0.6794 0.7338 -0.7338 0.6794 68.0284 -16.6437)" width="83.7" height="2"/>
	<rect x="19.2" y="80.8" transform="matrix(0.8392 0.5438 -0.5438 0.8392 53.0228 -15.7005)" width="67.8" height="2"/>
	<rect x="52.1" y="35.6" transform="matrix(0.5438 0.8392 -0.8392 0.5438 82.5486 -12.8129)" width="2" height="67.8"/>
	<g>
		<g>
			<circle fill="#00B254" cx="24.6" cy="38.8" r="9"/>
		</g>
		<g>
			<circle fill="#00B254" cx="24.6" cy="63.4" r="9"/>
		</g>
		<g>
			<circle fill="#00B254" cx="24.6" cy="87.9" r="9"/>
		</g>
		<g>
			<circle fill="#00B254" cx="24.6" cy="112.5" r="9"/>
		</g>
	</g>
</g>
<g>
	<g>
		<g>
			<circle cx="187.2" cy="100.2" r="9"/>
		</g>
		<g>
			<circle cx="187.2" cy="75.7" r="9"/>
		</g>
		<g>
			<circle cx="187.2" cy="51.1" r="9"/>
		</g>
	</g>
	<rect x="186.6" y="105.4" transform="matrix(0.9775 0.2111 -0.2111 0.9775 27.3221 -43.1351)" width="58.2" height="2"/>
	<rect x="214.7" y="65" transform="matrix(0.2109 0.9775 -0.9775 0.2109 262.1388 -136.5546)" width="2" height="58.2"/>
	<rect x="186.6" y="80.8" transform="matrix(0.9775 0.2111 -0.2111 0.9775 22.135 -43.6889)" width="58.2" height="2"/>
	<rect x="214.7" y="40.4" transform="matrix(0.2109 0.9775 -0.9775 0.2109 238.1249 -155.9394)" width="2" height="58.2"/>
	<rect x="186.6" y="56.2" transform="matrix(0.9775 0.2111 -0.2111 0.9775 16.948 -44.2428)" width="58.2" height="2"/>
	<rect x="214.7" y="15.9" transform="matrix(0.2109 0.9775 -0.9775 0.2109 214.1112 -175.3241)" width="2" height="58.2"/>
	<rect x="214.7" y="23.4" transform="matrix(0.5438 0.8392 -0.8392 0.5438 146.4086 -154.861)" width="2" height="67.8"/>
	<rect x="214.7" y="27.7" transform="matrix(0.7337 0.6795 -0.6795 0.7337 104.6692 -128.0153)" width="2" height="83.7"/>
	<rect x="181.8" y="93.1" transform="matrix(0.8392 0.5438 -0.5438 0.8392 85.8489 -102.1482)" width="67.8" height="2"/>
	<rect x="173.8" y="80.8" transform="matrix(0.6794 0.7338 -0.7338 0.6794 129.1711 -132.0123)" width="83.7" height="2"/>
	<rect x="181.8" y="68.5" transform="matrix(0.8392 0.5438 -0.5438 0.8392 72.4876 -106.0979)" width="67.8" height="2"/>
	<rect x="214.7" y="47.9" transform="matrix(0.5438 0.8392 -0.8392 0.5438 167.0247 -143.6546)" width="2" height="67.8"/>
	<g>
		<g>
			<circle fill="#FF0000" cx="244.1" cy="112.5" r="9"/>
		</g>
		<g>
			<circle fill="#FF0000" cx="244.1" cy="87.9" r="9"/>
		</g>
		<g>
			<circle fill="#FF0000" cx="244.1" cy="63.4" r="9"/>
		</g>
		<g>
			<circle fill="#FF0000" cx="244.1" cy="38.8" r="9"/>
		</g>
	</g>
</g>
<rect x="80.8" y="56.2" transform="matrix(0.9741 0.2263 -0.2263 0.9741 15.7558 -22.9406)" width="54.3" height="2"/>
<rect x="106.9" y="42.4" transform="matrix(0.2265 0.974 -0.974 0.2265 151.1926 -51.3428)" width="2" height="54.3"/>
<rect x="106.9" y="49.6" transform="matrix(0.5718 0.8204 -0.8204 0.5718 113.3242 -53.5096)" width="2" height="64.4"/>
<rect x="80.8" y="80.8" transform="matrix(0.9741 0.2263 -0.2263 0.9741 21.3158 -22.3032)" width="54.3" height="2"/>
<rect x="75.7" y="68.5" transform="matrix(0.8204 0.5718 -0.5718 0.8204 59.1449 -49.2263)" width="64.4" height="2"/>
<rect x="106.9" y="67" transform="matrix(0.2265 0.974 -0.974 0.2265 175.1206 -32.3414)" width="2" height="54.3"/>
<rect x="159.8" y="30.1" transform="matrix(0.2265 0.974 -0.974 0.2265 180.1172 -112.3332)" width="2" height="54.3"/>
<rect x="159.8" y="37.3" transform="matrix(0.5718 0.8204 -0.8204 0.5718 125.8822 -102.1373)" width="2" height="64.4"/>
<rect x="133.7" y="68.5" transform="matrix(0.9741 0.2263 -0.2263 0.9741 19.9073 -34.5861)" width="54.3" height="2"/>
<rect x="159.8" y="54.7" transform="matrix(0.2265 0.974 -0.974 0.2265 204.0449 -93.3319)" width="2" height="54.3"/>
<rect x="133.7" y="93.1" transform="matrix(0.974 0.2263 -0.2263 0.974 25.4685 -33.9499)" width="54.3" height="2"/>
<rect x="128.5" y="80.8" transform="matrix(0.8152 0.5792 -0.5792 0.8152 77.0092 -77.72)" width="63.6" height="2"/>
<g>
	<g>
		<circle fill="#332992" cx="135" cy="63.4" r="9"/>
	</g>
	<g>
		<circle fill="#332992" cx="135" cy="87.9" r="9"/>
	</g>
</g>
</svg>
